<svg width="42" height="38" viewBox="0 0 42 38" fill="none" xmlns="http://www.w3.org/2000/svg">
<path d="M9.4668 34.9099C8.54854 33.166 8.11651 32.618 7.10557 30.9745C6.92062 30.6738 1.29571 21.463 1.01302 21.2745C0.513949 20.9418 14.5295 24.3971 14.4516 23.7305C14.1452 21.1088 13.271 7.61241 13.271 4.94267C13.271 4.17431 13.271 3.90349 13.2783 3.50698C13.3125 3.4215 13.6284 3.80563 13.6624 3.84691L13.6645 3.84951C13.984 4.23627 14.3227 4.60612 14.6411 4.99368C15.3214 5.82189 16.0245 6.65725 16.6525 7.52253C18.2817 9.76723 24.0102 15.0801 24.5583 15.0801C25.1063 15.0801 26.0768 10.8156 26.5857 8.6667C26.9428 7.15899 27.3087 5.83793 27.8902 4.41066C28.2955 3.41584 29.363 1 29.9381 1C30.1381 1 38.1349 14.7145 39.9039 17.8204M8.81102 37.1399C20.1738 28.7815 23.4622 27.1374 26.2025 25.4932C31.683 22.2049 40.1415 18.9885 41 18.3685M4.57227 23.9416C4.57227 24.3961 4.85165 24.889 5.01544 25.2972C5.49719 26.4977 6.15614 27.5896 6.822 28.6929L6.85333 28.7448C7.23191 29.3722 7.61473 29.9833 8.02644 30.5892C8.08322 30.6728 8.75501 31.7489 8.78897 31.2735C8.92737 29.3358 8.44653 27.3911 7.92067 25.534M7.92067 25.534C7.8995 25.4593 7.87826 25.3847 7.85699 25.3102C7.76297 24.9811 7.50506 24.0034 7.50506 24.3456C7.50506 24.7096 7.69936 25.1353 7.92067 25.534ZM7.92067 25.534C8.10055 25.8581 8.29827 26.1643 8.424 26.4051C9.46189 28.3929 10.6984 30.3209 11.8977 32.2055C12.016 32.3913 11.7437 31.7922 11.6501 31.5929C10.8295 29.8459 10.2674 27.9948 9.42115 26.2552C9.39406 26.1995 8.87913 25.3156 9.03011 25.4666C9.54419 25.9807 10.0049 26.5244 10.4378 27.109C11.3868 28.3901 12.2656 30.0118 13.5336 31.0128C14.0673 31.4342 13.4149 29.6322 13.136 29.012C12.4381 27.4598 11.5208 25.9814 10.9266 24.3847C10.3776 22.9091 11.6692 24.4303 12.0541 24.8605C12.8873 25.7916 13.534 26.8924 14.4004 27.7868C14.7279 28.1249 16.4018 30.3362 16.3099 29.6667C16.2825 29.467 14.4077 25.8038 14.622 25.7273C15.129 25.5462 16.0045 26.4792 16.3099 26.7701C16.4551 26.9083 17.4381 27.9932 17.3071 27.6695C17.0997 27.1571 16.7806 26.6785 16.5446 26.177C16.4973 26.0765 15.1795 23.3874 15.4133 23.3289C15.9013 23.2069 17.5383 25.8356 17.9393 26.0466C18.3363 26.2556 18.7801 26.6035 19.2101 26.731C19.5541 26.8329 19.0811 25.6576 19.0472 25.5839C18.7445 24.9258 18.4116 24.2511 18.0631 23.6157C17.958 23.424 17.5798 22.9414 17.7829 23.0226C18.1555 23.1717 18.6156 24.0728 18.8582 24.3847C19.1996 24.8236 19.5601 25.2167 19.9271 25.6295C20.057 25.7757 20.0618 25.7628 20.0574 25.5578C20.033 24.4091 19.6741 23.2874 19.2753 22.221C18.361 19.7758 17.2592 21.5935 16.4403 19.1122C16.3328 18.7866 16.0519 13.7781 16.3816 13.8723C16.5675 13.9254 16.7013 14.2065 16.7792 14.3546C17.3255 15.3927 17.504 16.607 17.8285 17.724C18.1773 18.9248 18.4745 20.125 18.9364 21.289C19.2099 21.9783 19.5011 22.65 19.7967 23.3289C19.9176 23.6066 20.0053 23.9937 20.2269 24.2153C20.6572 24.6457 19.8783 23.0473 19.6533 22.4817C19.0694 21.0135 18.4834 19.5863 18.1934 18.0238C17.8856 16.3651 17.7897 14.6539 17.6776 12.961M17.6776 12.961C17.6497 12.5399 17.6208 12.1198 17.5873 11.702C17.5443 11.164 17.2583 10.7662 17.066 10.2748C16.9631 10.0119 16.781 9.79723 16.6814 9.5383C16.6438 9.44039 15.8594 8.68538 15.3728 8.1641M17.6776 12.961C16.8279 11.0811 15.8889 9.07396 15.3728 8.1641M17.6776 12.961C18.588 14.9753 19.3958 16.8435 19.4708 17.0593C20.3432 19.5672 21.4496 21.9779 22.4688 24.4238C22.6385 24.8311 23.016 26.0332 23.0814 25.597C23.1354 25.2373 22.7898 24.343 22.7165 24.0915C22.3467 22.8235 21.8895 21.5854 21.4782 20.331C20.9681 18.7753 20.6351 17.2445 20.2855 15.6711C20.2685 15.5947 20.0902 15.323 20.2269 15.5212C21.0153 16.6644 21.64 17.8936 22.3059 19.1122C23.0004 20.3833 23.7356 21.6844 24.5674 22.8727C25.2304 23.8198 23.9827 20.6314 23.5767 19.5489C22.8537 17.6207 21.9326 15.6664 21.4847 13.6507C21.3149 12.8867 21.1992 12.5267 21.7649 13.364C22.6747 14.7104 23.451 16.1122 24.2415 17.5285C24.8323 18.5871 25.5597 19.5098 26.2488 20.5004C26.431 20.7623 26.8014 21.5736 26.8354 21.2564C26.9356 20.3215 25.9165 18.9501 25.4733 18.1672C25.278 17.8222 25.0237 17.4767 24.8672 17.1114C24.6674 16.6452 24.6459 16.6816 25.0366 17.0723C25.8903 17.926 26.6533 18.8076 27.3959 19.7574C27.6814 20.1226 28.7486 21.3763 29.1034 21.6667C29.6153 22.0855 28.3932 19.7945 28.3605 19.6923C27.9073 18.279 27.1287 16.5377 27.2134 15.0128C27.2191 14.9112 27.3264 15.1823 27.3829 15.267C27.7615 15.8349 28.1839 16.3732 28.5886 16.9224C29.0051 17.4877 29.3333 18.1324 29.7943 18.6625C29.9498 18.8414 29.9584 18.9112 29.8725 18.5387C29.3563 16.3021 28.2487 14.2515 27.435 12.1192C27.1439 11.3562 27.3897 11.5156 27.7543 12.0018C28.4005 12.8633 28.8686 13.8467 29.325 14.8173C30.0688 16.3992 30.8381 19.1009 32.1405 20.331C32.3006 20.4822 31.6963 18.1758 31.6191 17.9782C31.1779 16.8487 30.7773 15.6939 30.3939 14.5436C30.0845 13.6154 29.7921 12.6816 29.4999 11.7479L29.4814 11.689C29.3783 11.3597 28.3605 8.50763 28.3605 8.13056C28.3605 7.46775 29.8334 11.528 30.1332 12.1192C31.1289 14.0828 32.1374 16.136 33.4309 17.9326C33.4619 17.9756 34.2629 19.6868 34.3333 19.6667C34.4216 19.6414 33.6243 17.8926 33.6134 17.8544C33.5297 17.5614 33.3202 17.0704 33.2224 16.8312C32.4008 14.8228 31.6575 12.7924 31.2281 10.6593C31.0664 9.85588 31.2938 8.89494 31.0586 8.13056C31.0534 8.11371 30.9521 7.71176 30.9804 7.733C31.0846 7.81115 31.2424 8.25052 31.2802 8.32608C31.3069 8.37943 31.3336 8.43272 31.3604 8.48597M15.3728 8.1641C15.1232 7.89665 14.9519 7.69074 15 7.66667C15.0495 7.64193 15.1823 7.82827 15.3728 8.1641ZM31.3604 8.48597C31.6289 9.02001 31.9006 9.5505 32.1405 10.0988C32.6856 11.3448 33.1888 12.6202 33.7174 13.8758M31.3604 8.48597C31.1102 7.79366 30.8724 7.09046 30.6415 6.37089C30.5951 6.22632 30.414 4.98331 30.4395 5.00877C30.5 5.06924 30.6051 5.20623 30.6154 5.28901C30.6293 5.39964 30.8872 5.73243 30.9674 5.78433C31.6679 6.23762 32.1194 7.43501 32.6358 8.10449C34.4721 10.4848 34.5933 13.4024 35.0765 16.2447M31.3604 8.48597C31.9785 10.1966 32.6719 11.8407 33.5222 13.5008C33.5865 13.6263 33.6516 13.7513 33.7174 13.8758M33.7174 13.8758C34.0997 14.784 34.4954 15.6819 34.9299 16.5509C35.0319 16.7549 35.459 18.1395 35.2818 17.32C35.2048 16.9636 35.1378 16.6048 35.0765 16.2447M33.7174 13.8758C34.1438 14.682 34.6015 15.4675 35.0765 16.2447M35.0765 16.2447C35.243 16.5171 35.4116 16.7884 35.5816 17.0593C35.7288 17.2936 36.9503 17.9739 36.9503 17.8414" stroke="#FFBE2F" stroke-width="1.5" stroke-linecap="round"/>
</svg>
