<svg width="45" height="45" viewBox="0 0 45 45" fill="none" xmlns="http://www.w3.org/2000/svg">
<path d="M28.1721 44.32L23.8321 44.02C23.8054 41.1267 23.7388 38.1867 23.6321 35.2C23.5388 32.2 23.4254 29.2333 23.2921 26.3C23.1721 23.3667 23.0454 20.5667 22.9121 17.9C24.3788 17.86 25.7254 17.84 26.9521 17.84C28.1788 17.84 29.3121 17.8467 30.3521 17.86C31.6854 17.8867 32.8854 17.9467 33.9521 18.04C35.0188 18.1333 36.0454 18.2533 37.0321 18.4C37.0988 18.9867 37.1454 19.62 37.1721 20.3C37.1988 20.98 37.2121 21.5467 37.2121 22C36.7054 21.9467 35.9654 21.8867 34.9921 21.82C34.0188 21.74 32.8521 21.6733 31.4921 21.62C30.1321 21.5533 28.6054 21.52 26.9121 21.52C26.9654 22.0267 27.0188 22.6933 27.0721 23.52C27.1254 24.3467 27.1721 25.2133 27.2121 26.12C27.2521 27.0133 27.2921 27.8333 27.3321 28.58C28.7321 28.58 30.0388 28.6133 31.2521 28.68C32.4788 28.7467 33.5121 28.8267 34.3521 28.92C35.1921 29 35.7254 29.06 35.9521 29.1C35.9521 29.5933 35.9388 30.1267 35.9121 30.7C35.8988 31.2733 35.8721 31.82 35.8321 32.34C35.1121 32.26 34.2588 32.1867 33.2721 32.12C32.2854 32.0533 31.2854 32 30.2721 31.96C29.2721 31.92 28.3721 31.9 27.5721 31.9C27.6654 33.0333 27.7521 34.3133 27.8321 35.74C27.9121 37.1533 27.9854 38.6 28.0521 40.08C28.1188 41.56 28.1588 42.9733 28.1721 44.32Z" fill="black"/>
<path d="M14.3501 26.4324C13.6614 25.1245 13.3374 24.7135 12.5792 23.4809C12.4405 23.2554 8.22176 16.3472 8.00976 16.2059C7.63546 15.9563 18.1471 18.5478 18.0887 18.0478C17.8589 16.0816 17.2032 5.95931 17.2032 3.957C17.2032 3.38074 17.2032 3.17762 17.2087 2.88024C17.2344 2.81613 17.4713 3.10422 17.4968 3.13518L17.4984 3.13713C17.738 3.4272 17.9921 3.70459 18.2308 3.99526C18.7411 4.61642 19.2684 5.24294 19.7394 5.8919C20.9613 7.5754 25.2577 11.5601 25.6687 11.5601C26.0798 11.5601 26.8076 8.3617 27.1893 6.75C27.4571 5.61924 27.7315 4.62845 28.1677 3.558C28.4716 2.81188 29.2722 1 29.7035 1C29.8536 1 35.8512 11.2859 37.1779 13.6153M13.8583 28.1049C22.3804 21.8362 24.8466 20.603 26.9018 19.3699C31.0123 16.9036 37.3561 14.4914 38 14.0263M10.6792 18.2062C10.6792 18.5471 10.8887 18.9167 11.0116 19.2229C11.3729 20.1233 11.8671 20.9422 12.3665 21.7697L12.39 21.8086C12.6739 22.2791 12.961 22.7375 13.2698 23.1919C13.3124 23.2546 13.8163 24.0617 13.8417 23.7052C13.9455 22.2519 13.5849 20.7934 13.1905 19.4005M13.1905 19.4005C13.1746 19.3444 13.1587 19.2885 13.1427 19.2326C13.0722 18.9858 12.8788 18.2525 12.8788 18.5092C12.8788 18.7822 13.0245 19.1015 13.1905 19.4005ZM13.1905 19.4005C13.3254 19.6435 13.4737 19.8732 13.568 20.0538C14.3464 21.5447 15.2738 22.9907 16.1733 24.4041C16.262 24.5435 16.0578 24.0942 15.9875 23.9447C15.3721 22.6344 14.9506 21.2461 14.3159 19.9414C14.2955 19.8996 13.9093 19.2367 14.0226 19.35C14.4081 19.7355 14.7536 20.1433 15.0784 20.5817C15.7901 21.5426 16.4492 22.7589 17.4002 23.5096C17.8005 23.8256 17.3112 22.4741 17.102 22.009C16.5786 20.8449 15.8906 19.7361 15.445 18.5386C15.0332 17.4319 16.0019 18.5727 16.2906 18.8954C16.9154 19.5937 17.4005 20.4193 18.0503 21.0901C18.2959 21.3437 19.5514 23.0021 19.4825 22.5C19.4619 22.3503 18.0558 19.6029 18.2165 19.5455C18.5967 19.4097 19.2534 20.1094 19.4825 20.3276C19.5913 20.4312 20.3286 21.2449 20.2303 21.0021C20.0748 20.6178 19.8354 20.2589 19.6584 19.8827C19.6229 19.8073 18.6346 17.7905 18.81 17.7467C19.1759 17.6552 20.4037 19.6267 20.7045 19.785C21.0022 19.9417 21.335 20.2027 21.6576 20.2982C21.9156 20.3747 21.5608 19.4932 21.5354 19.4379C21.3084 18.9444 21.0587 18.4384 20.7973 17.9618C20.7185 17.818 20.4349 17.4561 20.5871 17.517C20.8666 17.6288 21.2117 18.3046 21.3937 18.5386C21.6497 18.8677 21.9201 19.1625 22.1953 19.4722C22.2927 19.5818 22.2963 19.5721 22.293 19.4184C22.2747 18.5568 22.0056 17.7156 21.7065 16.9157C21.0208 15.0818 20.1944 16.4451 19.5802 14.5842C19.4996 14.3399 19.2889 10.5836 19.5362 10.6542C19.6756 10.6941 19.7759 10.9049 19.8344 11.0159C20.2442 11.7945 20.378 12.7053 20.6214 13.543C20.883 14.4436 21.1059 15.3437 21.4523 16.2168C21.6575 16.7337 21.8758 17.2375 22.0975 17.7467C22.1882 17.955 22.254 18.2453 22.4201 18.4115C22.7429 18.7343 22.1587 17.5354 21.99 17.1113C21.552 16.0101 21.1125 14.9397 20.8951 13.7679C20.6642 12.5238 20.5923 11.2404 20.5082 9.9708M20.5082 9.9708C20.4873 9.6549 20.4656 9.3399 20.4405 9.0265C20.4082 8.623 20.1937 8.3247 20.0495 7.9561C19.9723 7.7589 19.8358 7.5979 19.7611 7.4037C19.7328 7.3303 19.1446 6.764 18.7796 6.3731M20.5082 9.9708C19.8709 8.5608 19.1667 7.0555 18.7796 6.3731M20.5082 9.9708C21.191 11.4815 21.7969 12.8827 21.8531 13.0445C22.5074 14.9254 23.3372 16.7334 24.1016 18.5679C24.2289 18.8733 24.512 19.7749 24.5611 19.4477C24.6015 19.178 24.3424 18.5073 24.2873 18.3186C24.01 17.3677 23.6671 16.439 23.3586 15.4982C22.9761 14.3315 22.7264 13.1833 22.4641 12.0033C22.4514 11.946 22.3176 11.7422 22.4201 11.8909C23.0114 12.7483 23.48 13.6702 23.9794 14.5842C24.5003 15.5375 25.0517 16.5133 25.6755 17.4045C26.1728 18.1149 25.237 15.7235 24.9326 14.9117C24.3903 13.4655 23.6995 11.9998 23.3635 10.488C23.2362 9.915 23.1494 9.645 23.5737 10.273C24.256 11.2828 24.8382 12.3341 25.4311 13.3964C25.8742 14.1903 26.4198 14.8823 26.9366 15.6253C27.0732 15.8217 27.3511 16.4302 27.3766 16.1923C27.4517 15.4912 26.6873 14.4626 26.355 13.8754C26.2085 13.6166 26.0178 13.3575 25.9004 13.0836C25.7505 12.7339 25.7344 12.7612 26.0275 13.0542C26.6678 13.6945 27.2399 14.3557 27.7969 15.0681C28.011 15.342 28.8114 16.2822 29.0776 16.5C29.4615 16.8141 28.5449 15.0959 28.5203 15.0192C28.1805 13.9592 27.5965 12.6532 27.6601 11.5096C27.6643 11.4334 27.7448 11.6367 27.7871 11.7003C28.0711 12.1262 28.3879 12.5299 28.6914 12.9418C29.0038 13.3658 29.25 13.8493 29.5957 14.2469C29.7123 14.381 29.7188 14.4334 29.6544 14.154C29.2673 12.4766 28.4365 10.9387 27.8262 9.3394C27.6079 8.7671 27.7923 8.8867 28.0658 9.2514C28.5503 9.8975 28.9015 10.635 29.2438 11.363C29.8016 12.5494 30.3786 14.5757 31.3554 15.4982C31.4755 15.6116 31.0222 13.8819 30.9643 13.7337C30.6334 12.8865 30.333 12.0204 30.0454 11.1577C29.8133 10.4616 29.5941 9.7612 29.3749 9.0609L29.3611 9.0168C29.2838 8.7698 28.5203 6.6307 28.5203 6.3479C28.5203 5.85082 29.625 8.896 29.8499 9.3394C30.5967 10.8121 31.353 12.352 32.3232 13.6994C32.3464 13.7317 32.9472 15.0151 33 15C33.0662 14.9811 32.4682 13.6694 32.4601 13.6408C32.3973 13.421 32.2402 13.0528 32.1668 12.8734C31.5506 11.3671 30.9931 9.8443 30.6711 8.2445C30.5498 7.6419 30.7204 6.9212 30.544 6.3479C30.5401 6.3353 30.4641 6.0338 30.4853 6.0498C30.5635 6.1084 30.6818 6.4379 30.7102 6.4946C30.7302 6.5346 30.7502 6.5745 30.7703 6.6145M18.7796 6.3731C18.5924 6.1725 18.4639 6.0181 18.5 6C18.5371 5.98145 18.6368 6.1212 18.7796 6.3731ZM30.7703 6.6145C30.9717 7.015 31.1755 7.4129 31.3554 7.8241C31.7642 8.7586 32.1416 9.7151 32.538 10.6569M30.7703 6.6145C30.5827 6.0952 30.4043 5.56784 30.2311 5.02816C30.1963 4.91974 30.0605 3.98748 30.0796 4.00658C30.125 4.05193 30.2038 4.15467 30.2116 4.21676C30.222 4.29973 30.4154 4.54932 30.4755 4.58825C31.0009 4.92821 31.3395 5.82626 31.7269 6.3284C33.104 8.1136 33.195 10.3018 33.5574 12.4335M30.7703 6.6145C31.2339 7.8975 31.7539 9.1306 32.3916 10.3756C32.4398 10.4698 32.4887 10.5635 32.538 10.6569M32.538 10.6569C32.8248 11.338 33.1215 12.0114 33.4474 12.6632C33.5239 12.8162 33.8443 13.8546 33.7114 13.24C33.6536 12.9727 33.6033 12.7036 33.5574 12.4335M32.538 10.6569C32.8578 11.2615 33.2011 11.8506 33.5574 12.4335M33.5574 12.4335C33.6822 12.6378 33.8087 12.8413 33.9362 13.0445C34.0466 13.2202 34.9627 13.7305 34.9627 13.631" stroke="#FFBE2F" stroke-width="1.5" stroke-linecap="round"/>
</svg>
