<svg width="100" height="28" viewBox="0 0 100 28" fill="none" xmlns="http://www.w3.org/2000/svg">
<path d="M0.561051 11.2961C0.549605 11.2103 0.5353 11.0958 0.518132 10.9528C0.500965 10.804 0.486656 10.6524 0.475214 10.4979C0.469489 10.3376 0.463768 10.1917 0.458047 10.0601C0.452321 9.92275 0.449463 9.81975 0.449463 9.75108C1.10182 9.71674 1.8486 9.68241 2.68981 9.64807C3.53673 9.61374 4.38938 9.59657 5.24775 9.59657C5.87148 9.59657 6.47809 9.60803 7.06749 9.6309C7.65689 9.65378 8.19766 9.6967 8.68981 9.75966C8.69552 10.04 8.68981 10.3147 8.67264 10.5837C8.66118 10.8527 8.64402 11.0644 8.62114 11.2189C8.50097 11.2132 8.315 11.2074 8.0632 11.2017C7.81715 11.196 7.5396 11.1931 7.23058 11.1931C6.92157 11.1874 6.61256 11.1846 6.30354 11.1846C6.00024 11.1788 5.73131 11.1731 5.49668 11.1674C5.50239 11.3791 5.51097 11.7053 5.52243 12.1459C5.5396 12.5866 5.55676 13.0958 5.57393 13.6738C5.5911 14.2518 5.60827 14.8612 5.62543 15.5021C5.64831 16.1431 5.66835 16.7782 5.68552 17.4077C5.70839 18.0315 5.72844 18.6066 5.7456 19.133C5.76277 19.6538 5.77706 20.0887 5.78852 20.4378C5.80569 20.7868 5.81427 21.0014 5.81427 21.0815C5.67694 21.1044 5.48809 21.1245 5.24775 21.1416C5.01312 21.1645 4.77852 21.1788 4.54389 21.1846C4.30925 21.196 4.12328 21.2017 3.98594 21.2017C3.96878 20.8584 3.95161 20.4206 3.93444 19.8884C3.91727 19.3562 3.90011 18.7697 3.88294 18.1288C3.87149 17.4821 3.86005 16.8212 3.8486 16.1459C3.83716 15.4707 3.82857 14.8155 3.82285 14.1803C3.81713 13.5451 3.81427 12.9728 3.81427 12.4635C3.81427 12.206 3.81427 11.9714 3.81427 11.7597C3.81999 11.5422 3.82285 11.3505 3.82285 11.1846C3.59968 11.196 3.34217 11.2074 3.05032 11.2189C2.75848 11.2246 2.46091 11.2332 2.15762 11.2446C1.85433 11.2561 1.56248 11.2675 1.28208 11.279C1.0074 11.2847 0.767059 11.2904 0.561051 11.2961ZM11.8405 21.2532C11.7433 21.2647 11.6145 21.2733 11.4543 21.279C11.2998 21.2847 11.1396 21.2876 10.9736 21.2876C10.7962 21.2876 10.6217 21.279 10.45 21.2618C10.2783 21.2503 10.1553 21.2332 10.0809 21.2103C10.1324 20.8097 10.1753 20.3004 10.2096 19.6824C10.2497 19.0644 10.2812 18.3777 10.3041 17.6223C10.327 16.867 10.3384 16.083 10.3384 15.2704C10.3384 14.5322 10.327 13.7883 10.3041 13.0386C10.2869 12.2833 10.2611 11.5565 10.2268 10.8584C10.1925 10.1602 10.1581 9.52219 10.1238 8.94421C10.1639 8.92704 10.2497 8.907 10.3813 8.88412C10.5187 8.8555 10.6703 8.82975 10.8362 8.80687C11.0079 8.77824 11.171 8.75537 11.3255 8.7382C11.48 8.71533 11.5974 8.70099 11.6775 8.69528C11.7633 9.12447 11.8348 9.66236 11.892 10.309C11.955 10.9499 12.0036 11.6509 12.038 12.412C12.0723 13.1674 12.0952 13.9342 12.1066 14.7124C12.3012 14.4664 12.5587 14.2346 12.8792 14.0172C13.2053 13.794 13.5659 13.6137 13.9607 13.4764C14.3556 13.3334 14.759 13.2618 15.171 13.2618C15.8005 13.2618 16.2955 13.4049 16.656 13.691C17.0223 13.9771 17.2798 14.3777 17.4285 14.8927C17.583 15.4077 17.6603 16.0172 17.6603 16.721C17.6603 17.1502 17.6431 17.6223 17.6088 18.1373C17.5802 18.6524 17.5373 19.1703 17.48 19.691C17.4285 20.206 17.3742 20.6867 17.3169 21.133C17.1853 21.1502 17.0451 21.1617 16.8963 21.1674C16.7533 21.1788 16.6074 21.1846 16.4586 21.1846C16.3041 21.1846 16.1496 21.176 15.995 21.1588C15.8463 21.1473 15.7147 21.1302 15.6002 21.1073C15.6403 20.8326 15.6832 20.5236 15.729 20.1803C15.7747 19.8312 15.8177 19.4735 15.8577 19.1073C15.8978 18.7353 15.9293 18.372 15.9521 18.0172C15.9808 17.6624 15.995 17.3334 15.995 17.03C15.995 16.578 15.955 16.1831 15.8749 15.8455C15.8005 15.5079 15.6632 15.2475 15.4629 15.0644C15.2626 14.8755 14.9736 14.7811 14.5959 14.7811C14.2812 14.7811 13.9836 14.8469 13.7032 14.9785C13.4228 15.1102 13.1682 15.2704 12.9393 15.4592C12.7161 15.6481 12.5301 15.8283 12.3813 16C12.2383 16.166 12.1438 16.2861 12.0981 16.3605C12.0981 16.99 12.0838 17.6309 12.0551 18.2833C12.0323 18.9356 12.0008 19.5279 11.9607 20.0601C11.9207 20.5866 11.8806 20.9843 11.8405 21.2532ZM27.8529 19.1674C27.7384 19.3276 27.5696 19.5136 27.3465 19.7253C27.1233 19.9313 26.8457 20.1316 26.5138 20.3262C26.182 20.515 25.7957 20.6724 25.355 20.7983C24.9144 20.9242 24.4165 20.9871 23.8615 20.9871C23.0031 20.9871 22.2506 20.8126 21.604 20.4635C20.9573 20.1145 20.4566 19.6052 20.1018 18.9356C19.747 18.2604 19.5696 17.4392 19.5696 16.4721C19.5696 15.5451 19.7614 14.7411 20.1447 14.0601C20.5339 13.3791 21.0661 12.8527 21.7413 12.4807C22.4165 12.1087 23.192 11.9227 24.0675 11.9227C25.1662 11.9227 26.0217 12.2575 26.634 12.927C27.252 13.5966 27.5954 14.495 27.6641 15.6223C27.6755 15.8055 27.6812 15.9828 27.6812 16.1545C27.6812 16.3205 27.6726 16.4921 27.6555 16.6695C27.5811 16.6638 27.4266 16.6581 27.192 16.6524C26.9631 16.6409 26.6941 16.6323 26.3851 16.6266C26.0761 16.6152 25.7642 16.6066 25.4495 16.6009C25.1405 16.5894 24.8744 16.5837 24.6512 16.5837C24.0732 16.5837 23.4809 16.6123 22.8744 16.6695C22.2678 16.7267 21.727 16.7926 21.252 16.867C21.2577 17.0158 21.2721 17.1617 21.295 17.3047C21.3178 17.4478 21.3465 17.5851 21.3808 17.7167C21.4781 18.0658 21.6555 18.3691 21.913 18.6266C22.1705 18.8784 22.4766 19.073 22.8314 19.2103C23.192 19.3476 23.5725 19.4163 23.9731 19.4163C24.3965 19.4163 24.7656 19.3534 25.0804 19.2275C25.3951 19.1016 25.6641 18.9471 25.8872 18.764C26.1161 18.5808 26.2993 18.4063 26.4366 18.2403C26.5796 18.0744 26.6884 17.9514 26.7628 17.8712C26.7971 17.8999 26.8629 17.9628 26.9602 18.0601C27.0632 18.1516 27.1719 18.2632 27.2864 18.3949C27.4065 18.5265 27.5181 18.6609 27.6211 18.7983C27.7299 18.9299 27.8071 19.0529 27.8529 19.1674ZM21.2778 15.7167C21.6898 15.6481 22.1734 15.588 22.7284 15.5365C23.2893 15.485 23.9244 15.4592 24.634 15.4592C25.006 15.4592 25.3207 15.4649 25.5782 15.4764C25.8414 15.4821 26.0246 15.4907 26.1276 15.5021C26.1276 15.3133 26.1047 15.113 26.0589 14.9013C25.9959 14.6152 25.8815 14.3376 25.7156 14.0687C25.5496 13.7997 25.3236 13.5765 25.0374 13.3991C24.7571 13.216 24.4023 13.1245 23.9731 13.1245C23.4809 13.1245 23.0317 13.2303 22.6254 13.4421C22.2249 13.6481 21.9044 13.9456 21.6641 14.3348C21.4237 14.7182 21.295 15.1788 21.2778 15.7167ZM36.9838 21.2189L35.1211 21.0901C35.1097 19.8484 35.0811 18.5866 35.0353 17.3047C34.9953 16.0172 34.9466 14.7439 34.8894 13.485C34.8379 12.2261 34.7835 11.0243 34.7263 9.87983C35.3558 9.86266 35.9337 9.85408 36.4602 9.85408C36.9867 9.85408 37.4731 9.85696 37.9194 9.86266C38.4917 9.87412 39.0067 9.89987 39.4645 9.93992C39.9223 9.97996 40.3629 10.0315 40.7864 10.0944C40.815 10.3462 40.835 10.618 40.8465 10.9099C40.8579 11.2017 40.8636 11.4449 40.8636 11.6395C40.6462 11.6166 40.3286 11.5909 39.9108 11.5622C39.4931 11.5279 38.9924 11.4993 38.4087 11.4764C37.825 11.4478 37.1698 11.4335 36.443 11.4335C36.4659 11.6509 36.4888 11.937 36.5117 12.2918C36.5346 12.6467 36.5546 13.0186 36.5718 13.4077C36.589 13.7911 36.6061 14.1431 36.6233 14.4635C37.2241 14.4635 37.785 14.4778 38.3057 14.5064C38.8322 14.5351 39.2757 14.5694 39.6362 14.6094C39.9967 14.6438 40.2256 14.6695 40.3229 14.6867C40.3229 14.8984 40.3172 15.1273 40.3057 15.3734C40.3 15.6194 40.2885 15.8541 40.2714 16.0773C39.9623 16.0429 39.5961 16.0115 39.1726 15.9828C38.7492 15.9542 38.32 15.9313 37.8851 15.9142C37.4559 15.897 37.0696 15.8884 36.7263 15.8884C36.7663 16.3748 36.8035 16.9242 36.8379 17.5365C36.8722 18.1431 36.9037 18.764 36.9323 19.3991C36.9609 20.0343 36.9781 20.6409 36.9838 21.2189ZM45.6975 21.2618C44.982 21.2618 44.3326 21.1674 43.749 20.9785C43.1708 20.784 42.7103 20.475 42.367 20.0515C42.0236 19.6223 41.852 19.0529 41.852 18.3434C41.852 17.6624 42.0437 17.0987 42.4271 16.6524C42.8105 16.206 43.3284 15.877 43.9807 15.6652C44.6387 15.4478 45.3743 15.3391 46.1867 15.3391C46.5644 15.3391 46.9335 15.3677 47.294 15.4249C47.6545 15.4764 47.9665 15.5394 48.2296 15.6137C48.4927 15.6824 48.6704 15.7368 48.7618 15.7768C48.7447 15.588 48.7103 15.3963 48.6588 15.2017C48.6129 15.0014 48.5417 14.8269 48.4442 14.6781C48.2266 14.2947 47.909 13.98 47.4914 13.7339C47.0794 13.4821 46.5614 13.3562 45.9378 13.3562C45.2799 13.3562 44.7219 13.4993 44.264 13.7854C43.806 14.0658 43.4627 14.4006 43.2339 14.7897L41.8434 13.8712C42.0952 13.4993 42.4271 13.1703 42.8391 12.8841C43.2511 12.598 43.7262 12.372 44.264 12.206C44.8017 12.04 45.3799 11.9571 45.9979 11.9571C46.9593 11.9571 47.7545 12.1402 48.3841 12.5064C49.0138 12.8727 49.4743 13.3562 49.7661 13.9571C49.9151 14.2604 50.0322 14.5923 50.1181 14.9528C50.2039 15.3133 50.2554 15.7597 50.2726 16.2918C50.2841 16.8527 50.2953 17.3305 50.3069 17.7253C50.3241 18.1202 50.3412 18.4606 50.3584 18.7468C50.3871 19.1188 50.4442 19.3591 50.5301 19.4678C50.6159 19.5765 50.7391 19.6309 50.8992 19.6309C51.0824 19.6309 51.2369 19.5537 51.3627 19.3991C51.4884 19.2389 51.5601 19.0158 51.5773 18.7296L52.4013 19.6395C52.367 20.1202 52.1983 20.4864 51.8949 20.7382C51.5914 20.99 51.2369 21.1159 50.8305 21.1159C50.5099 21.1159 50.2266 21.0558 49.9807 20.9356C49.7404 20.8097 49.5485 20.6495 49.4056 20.4549C49.2627 20.2604 49.1794 20.0601 49.1567 19.8541C49.0421 20.0658 48.8189 20.2804 48.4872 20.4979C48.161 20.7153 47.7575 20.8984 47.2769 21.0472C46.8017 21.1903 46.2756 21.2618 45.6975 21.2618ZM46.0065 19.9142C46.3786 19.9142 46.7417 19.857 47.0966 19.7425C47.4515 19.628 47.7777 19.4764 48.0751 19.2876C48.3786 19.0987 48.6275 18.8898 48.8219 18.6609C48.8163 18.3061 48.8163 17.9914 48.8219 17.7167C48.8275 17.4364 48.8361 17.1788 48.8477 16.9442C48.6816 16.887 48.364 16.8126 47.8949 16.721C47.4258 16.6237 46.8962 16.5751 46.3069 16.5751C45.7975 16.5751 45.3339 16.6438 44.9163 16.7811C44.5043 16.9128 44.1751 17.1044 43.9292 17.3562C43.6889 17.608 43.5687 17.9113 43.5687 18.2661C43.5687 18.6953 43.6717 19.03 43.8777 19.2704C44.0893 19.505 44.3786 19.6709 44.7447 19.7682C45.1108 19.8655 45.5314 19.9142 46.0065 19.9142ZM58.2691 11.7167C58.5326 11.7625 58.7786 11.8169 59.0073 11.8798C59.2365 11.9428 59.4309 12 59.591 12.0515C59.7515 12.0973 59.8485 12.1288 59.8829 12.1459C59.7859 12.5293 59.6455 13.0129 59.4623 13.5966C59.2794 14.1746 59.0704 14.8012 58.8356 15.4764C58.6069 16.1516 58.3635 16.8383 58.106 17.5365C57.8545 18.2289 57.6056 18.887 57.3593 19.5107C57.1189 20.1345 56.8957 20.6752 56.6897 21.133C56.5069 21.1674 56.255 21.1846 55.9344 21.1846C55.797 21.1846 55.6627 21.1788 55.5309 21.1674C55.3996 21.1559 55.288 21.1445 55.1962 21.133C54.87 20.4578 54.5524 19.7396 54.2434 18.9785C53.9344 18.2117 53.6369 17.4306 53.3507 16.6352C53.0648 15.8398 52.7957 15.0558 52.5438 14.2833C52.2979 13.5107 52.0717 12.7811 51.8657 12.0944C51.9404 12.0715 52.0434 12.0458 52.1747 12.0172C52.3065 11.9828 52.4468 11.9485 52.5953 11.9142C52.7442 11.8741 52.8902 11.8369 53.0331 11.8026C53.1764 11.7682 53.2966 11.7368 53.3936 11.7082C53.4854 12.0744 53.6142 12.5265 53.7799 13.0644C53.9459 13.5966 54.1292 14.1631 54.3292 14.764C54.5352 15.3648 54.7412 15.9571 54.9472 16.5408C55.1593 17.1188 55.3567 17.6452 55.5395 18.1202C55.7228 18.5894 55.8717 18.9585 55.9859 19.2275L55.8657 19.2532C56.0146 18.8984 56.1747 18.4836 56.3464 18.0086C56.5181 17.5279 56.6957 17.0129 56.8786 16.4635C57.0674 15.9142 57.2507 15.3591 57.4279 14.7983C57.6056 14.2318 57.7657 13.6853 57.9086 13.1588C58.052 12.6266 58.1721 12.1459 58.2691 11.7167ZM65.4691 21.3476C63.97 21.3476 62.8627 20.9299 62.1472 20.0944C61.4322 19.2589 61.0743 18.0572 61.0743 16.4893C61.0743 15.4993 61.2575 14.6638 61.6236 13.9828C61.9957 13.3018 62.5108 12.784 63.1687 12.4292C63.8326 12.0744 64.6052 11.897 65.4863 11.897C66.4193 11.897 67.1889 12.1145 67.7953 12.5494C68.4022 12.9785 68.8511 13.5794 69.1429 14.3519C69.4408 15.1188 69.5893 16.0115 69.5893 17.03C69.5893 17.9056 69.4262 18.6667 69.1 19.3133C68.7738 19.9542 68.3017 20.4549 67.6837 20.8155C67.0717 21.1703 66.3335 21.3476 65.4691 21.3476ZM65.4005 19.8112C65.864 19.8112 66.2618 19.7253 66.5936 19.5537C66.9258 19.382 67.1944 19.1531 67.4005 18.867C67.6065 18.5751 67.7584 18.2489 67.8554 17.8884C67.9584 17.5279 68.0099 17.1588 68.0099 16.7811C68.0099 16.0944 67.9155 15.4821 67.7266 14.9442C67.5378 14.4063 67.252 13.9857 66.8683 13.6824C66.485 13.3734 65.9957 13.2189 65.4005 13.2189C64.8168 13.2189 64.3275 13.3591 63.9326 13.6395C63.5378 13.9199 63.2404 14.3061 63.0399 14.7983C62.8455 15.2904 62.7481 15.8541 62.7481 16.4893C62.7481 17.4678 62.9743 18.2661 63.4262 18.8841C63.8786 19.5021 64.5365 19.8112 65.4005 19.8112ZM72.773 13.4764C72.9447 13.1846 73.1936 12.9185 73.5198 12.6781C73.8515 12.4378 74.2236 12.2461 74.6356 12.103C75.0532 11.96 75.4713 11.8884 75.8889 11.8884C76.158 11.8884 76.4296 11.9142 76.7043 11.9657C76.979 12.0115 77.1936 12.0773 77.3481 12.1631L77.0047 13.8884C76.8674 13.8312 76.6902 13.7711 76.4726 13.7082C76.261 13.6395 75.9975 13.6052 75.6829 13.6052C75.3451 13.6052 75.0078 13.6681 74.67 13.794C74.3382 13.9142 74.0318 14.0801 73.7515 14.2918C73.4713 14.5036 73.2365 14.7468 73.0477 15.0215C73.1279 15.422 73.2052 15.9113 73.2794 16.4893C73.3597 17.0673 73.4309 17.6595 73.494 18.2661C73.5571 18.8727 73.6086 19.4278 73.6485 19.9313C73.6884 20.4292 73.7086 20.804 73.7086 21.0558C73.4627 21.0787 73.1623 21.093 72.8073 21.0987C72.4524 21.1044 72.1262 21.1044 71.8288 21.0987C71.8288 20.5665 71.8172 20.0057 71.7944 19.4163C71.7717 18.8212 71.7344 18.2146 71.6829 17.5966C71.6369 16.9728 71.5768 16.3519 71.5026 15.7339C71.4284 15.1159 71.3395 14.5179 71.2365 13.9399C71.1391 13.3562 71.0275 12.804 70.9017 12.2833C71.0563 12.2375 71.2365 12.1917 71.4425 12.1459C71.6541 12.1001 71.849 12.0601 72.0262 12.0258C72.2035 11.9914 72.3236 11.9714 72.3867 11.9657C72.461 12.1602 72.5382 12.412 72.6185 12.721C72.6987 13.03 72.7502 13.2818 72.773 13.4764ZM81.1241 21.0901C81.0438 21.0958 80.9181 21.1044 80.7464 21.1159C80.5747 21.1273 80.4 21.133 80.2228 21.133C80.0627 21.133 79.9082 21.1273 79.7593 21.1159C79.6103 21.1044 79.4704 21.0901 79.3386 21.073C79.3614 20.9242 79.3902 20.618 79.4245 20.1545C79.4588 19.6853 79.4932 19.1302 79.5275 18.4893C79.5618 17.8484 79.5932 17.1874 79.6219 16.5064C79.6507 15.8255 79.6734 15.1903 79.6906 14.6009C79.7077 14.0057 79.7163 13.5336 79.7163 13.1846C79.7794 13.1788 79.8794 13.1731 80.0168 13.1674C80.1597 13.1617 80.3142 13.1559 80.4803 13.1502C80.6464 13.1388 80.8035 13.1302 80.9524 13.1245C81.1013 13.1188 81.2129 13.1159 81.2871 13.1159C81.3099 13.2704 81.3245 13.5079 81.3301 13.8283C81.3417 14.1431 81.3472 14.5007 81.3472 14.9013C81.3472 15.4335 81.3417 16.0143 81.3301 16.6438C81.3245 17.2733 81.3099 17.8913 81.2871 18.4979C81.2644 19.1044 81.2386 19.6395 81.2099 20.103C81.1871 20.5665 81.1584 20.8956 81.1241 21.0901ZM80.6004 11.7768C80.2112 11.7768 79.9022 11.6595 79.6734 11.4249C79.4447 11.1903 79.3301 10.8956 79.3301 10.5408C79.3301 10.2718 79.3871 10.0486 79.5017 9.87125C79.6163 9.68811 79.7648 9.55078 79.9481 9.45923C80.1369 9.36193 80.3399 9.31331 80.5575 9.31331C80.9065 9.31331 81.1871 9.43636 81.3987 9.68241C81.6163 9.92846 81.7249 10.2346 81.7249 10.6009C81.7249 10.9213 81.6219 11.1988 81.4159 11.4335C81.2155 11.6624 80.9438 11.7768 80.6004 11.7768ZM90.091 19.485C90.0052 19.7597 89.8734 20.0486 89.6962 20.3519C89.5189 20.6495 89.2726 20.9013 88.958 21.1073C88.6434 21.319 88.2369 21.4249 87.7391 21.4249C87.0983 21.4249 86.5889 21.2847 86.2112 21.0043C85.8391 20.7239 85.573 20.3548 85.4129 19.897C85.2528 19.4392 85.1726 18.9413 85.1726 18.4034C85.1726 18.123 85.1756 17.7911 85.1811 17.4077C85.1927 17.0243 85.2039 16.6266 85.2155 16.2146C85.2271 15.8026 85.2382 15.4049 85.2498 15.0215C85.267 14.6323 85.2811 14.2918 85.2927 14C85.3043 13.7024 85.3129 13.4821 85.3185 13.3391C84.7575 13.3963 84.2713 13.4592 83.8593 13.5279C83.4528 13.5909 83.1927 13.6395 83.0781 13.6738C83.0438 13.4907 83.015 13.299 82.9923 13.0987C82.9751 12.8927 82.961 12.7067 82.9494 12.5408C82.9438 12.3748 82.9408 12.2632 82.9408 12.206C83.2614 12.1602 83.6331 12.1116 84.0567 12.0601C84.4859 12.0086 84.9095 11.9685 85.3271 11.9399C85.3326 11.7167 85.3356 11.4421 85.3356 11.1159C85.3356 10.784 85.3356 10.4721 85.3356 10.1803C85.3301 9.93421 85.3185 9.6967 85.3013 9.46781C85.2841 9.23318 85.27 9.03863 85.2584 8.88412L86.8721 8.7897C86.8837 8.87554 86.8949 9.08155 86.9065 9.40773C86.9236 9.7282 86.9322 10.1173 86.9322 10.5751C86.9322 10.7468 86.9322 10.9557 86.9322 11.2017C86.9322 11.4421 86.9322 11.6567 86.9322 11.8455C87.1039 11.834 87.3155 11.8226 87.5674 11.8112C87.8193 11.7997 88.0223 11.794 88.1768 11.794C88.4459 11.7883 88.7035 11.7854 88.9494 11.7854C89.1953 11.7854 89.4073 11.7883 89.5846 11.794C89.7618 11.7997 89.8708 11.8055 89.9108 11.8112C89.9395 11.9657 89.9567 12.1803 89.9623 12.4549C89.9738 12.7296 89.9794 12.9585 89.9794 13.1416C89.9223 13.1359 89.7249 13.1331 89.3872 13.1331C89.0554 13.1273 88.7262 13.1273 88.4 13.1331C88.1653 13.1388 87.9077 13.1502 87.6275 13.1674C87.3472 13.1788 87.1069 13.1903 86.9065 13.2017C86.9009 13.3505 86.8893 13.5708 86.8721 13.8627C86.8605 14.1545 86.8494 14.4836 86.8378 14.8498C86.8262 15.2103 86.815 15.5794 86.8035 15.9571C86.7919 16.3291 86.7833 16.6781 86.7777 17.0043C86.7721 17.3248 86.7691 17.5851 86.7691 17.7854C86.7691 18.1459 86.7893 18.4893 86.8292 18.8155C86.8751 19.1416 86.9781 19.4106 87.1382 19.6223C87.3043 19.8283 87.5644 19.9313 87.9193 19.9313C88.1597 19.9313 88.3541 19.8455 88.503 19.6738C88.652 19.5021 88.7661 19.3047 88.8464 19.0815C88.9322 18.8584 88.9953 18.6724 89.0352 18.5236C89.0867 18.5808 89.161 18.6581 89.2584 18.7554C89.3614 18.8469 89.47 18.9442 89.5846 19.0472C89.7047 19.1502 89.8108 19.2418 89.9022 19.3219C89.9996 19.402 90.0623 19.4564 90.091 19.485ZM99.2889 19.1674C99.1743 19.3276 99.0056 19.5136 98.7824 19.7253C98.5592 19.9313 98.2816 20.1316 97.9498 20.3262C97.6176 20.515 97.2314 20.6724 96.791 20.7983C96.3502 20.9242 95.8524 20.9871 95.2974 20.9871C94.4391 20.9871 93.6863 20.8126 93.0399 20.4635C92.3932 20.1145 91.8923 19.6052 91.5378 18.9356C91.1829 18.2604 91.0056 17.4392 91.0056 16.4721C91.0056 15.5451 91.197 14.7411 91.5807 14.0601C91.9696 13.3791 92.5017 12.8527 93.1773 12.4807C93.8524 12.1087 94.6279 11.9227 95.5035 11.9227C96.6022 11.9227 97.4575 12.2575 98.07 12.927C98.688 13.5966 99.0314 14.495 99.1 15.6223C99.1112 15.8055 99.1172 15.9828 99.1172 16.1545C99.1172 16.3205 99.1086 16.4921 99.0914 16.6695C99.0168 16.6638 98.8623 16.6581 98.6279 16.6524C98.3987 16.6409 98.1301 16.6323 97.8211 16.6266C97.512 16.6152 97.2 16.6066 96.8854 16.6009C96.5764 16.5894 96.3103 16.5837 96.0872 16.5837C95.509 16.5837 94.9168 16.6123 94.3103 16.6695C93.7035 16.7267 93.1627 16.7926 92.688 16.867C92.6936 17.0158 92.7077 17.1617 92.7309 17.3047C92.7537 17.4478 92.7824 17.5851 92.8168 17.7167C92.9138 18.0658 93.0914 18.3691 93.349 18.6266C93.6065 18.8784 93.9125 19.073 94.2674 19.2103C94.6279 19.3476 95.0082 19.4163 95.409 19.4163C95.8322 19.4163 96.2013 19.3534 96.5163 19.2275C96.8309 19.1016 97.1 18.9471 97.3232 18.764C97.552 18.5808 97.7352 18.4063 97.8726 18.2403C98.0155 18.0744 98.1241 17.9514 98.1987 17.8712C98.2331 17.8999 98.2987 17.9628 98.3962 18.0601C98.4992 18.1516 98.6077 18.2632 98.7223 18.3949C98.8425 18.5265 98.9541 18.6609 99.0571 18.7983C99.1657 18.9299 99.2429 19.0529 99.2889 19.1674ZM92.7138 15.7167C93.1258 15.6481 93.609 15.588 94.1644 15.5365C94.7249 15.485 95.3601 15.4592 96.07 15.4592C96.4417 15.4592 96.7567 15.4649 97.0142 15.4764C97.2773 15.4821 97.4605 15.4907 97.5635 15.5021C97.5635 15.3133 97.5404 15.113 97.4949 14.9013C97.4318 14.6152 97.3172 14.3376 97.1515 14.0687C96.9854 13.7997 96.7593 13.5765 96.4734 13.3991C96.1927 13.216 95.8382 13.1245 95.409 13.1245C94.9168 13.1245 94.4674 13.2303 94.0614 13.4421C93.6605 13.6481 93.3404 13.9456 93.1 14.3348C92.8597 14.7182 92.7309 15.1788 92.7138 15.7167Z" fill="black"/>
<path d="M31.0515 13.5418C30.7559 12.9805 30.6169 12.8041 30.2915 12.2751C30.2319 12.1783 28.4213 9.2134 28.3304 9.15276C28.1697 9.04563 32.6811 10.1579 32.6561 9.94327C32.5574 9.09941 32.276 4.75508 32.276 3.89572C32.276 3.64839 32.276 3.56122 32.2784 3.43359C32.2894 3.40607 32.3911 3.52972 32.402 3.543L32.4027 3.54384C32.5056 3.66833 32.6146 3.78739 32.7171 3.91214C32.9361 4.17873 33.1624 4.44762 33.3645 4.72615C33.8889 5.44868 35.7329 7.15885 35.9093 7.15885C36.0857 7.15885 36.3981 5.78615 36.5619 5.09443C36.6768 4.60912 36.7946 4.18389 36.9818 3.72447C37.1123 3.40425 37.4559 2.62662 37.641 2.62662C37.7054 2.62662 40.2795 7.04117 40.8489 8.04091M30.8404 14.2596C34.498 11.5692 35.5565 11.0399 36.4385 10.5107C38.2027 9.4522 40.9253 8.41692 41.2017 8.2173M29.476 10.0113C29.476 10.1576 29.5659 10.3162 29.6187 10.4476C29.7738 10.834 29.9859 11.1855 30.2002 11.5407L30.2103 11.5573C30.3321 11.7593 30.4553 11.956 30.5879 12.151C30.6062 12.1779 30.8224 12.5243 30.8333 12.3713C30.8779 11.7476 30.7231 11.1216 30.5538 10.5238M30.5538 10.5238C30.547 10.4998 30.5402 10.4758 30.5333 10.4518C30.5031 10.3458 30.4201 10.0311 30.4201 10.1413C30.4201 10.2585 30.4826 10.3955 30.5538 10.5238ZM30.5538 10.5238C30.6117 10.6281 30.6754 10.7267 30.7159 10.8042C31.0499 11.4441 31.448 12.0647 31.834 12.6713C31.8721 12.7311 31.7844 12.5383 31.7543 12.4741C31.4901 11.9118 31.3092 11.3159 31.0368 10.756C31.0281 10.738 30.8623 10.4535 30.911 10.5022C31.0764 10.6676 31.2247 10.8426 31.3641 11.0308C31.6695 11.4432 31.9524 11.9652 32.3606 12.2874C32.5324 12.423 32.3224 11.843 32.2326 11.6434C32.008 11.1437 31.7127 10.6679 31.5214 10.1539C31.3447 9.67894 31.7604 10.1685 31.8844 10.307C32.1525 10.6067 32.3607 10.9611 32.6396 11.249C32.745 11.3578 33.2838 12.0696 33.2543 11.8541C33.2454 11.7898 32.6419 10.6107 32.7109 10.5861C32.8741 10.5278 33.1559 10.8281 33.2543 10.9217C33.301 10.9662 33.6174 11.3154 33.5752 11.2112C33.5085 11.0463 33.4057 10.8922 33.3298 10.7308C33.3145 10.6984 32.8904 9.83284 32.9656 9.81404C33.1227 9.77477 33.6496 10.6209 33.7787 10.6888C33.9065 10.7561 34.0493 10.8681 34.1878 10.9091C34.2985 10.9419 34.1462 10.5636 34.1353 10.5399C34.0379 10.3281 33.9307 10.1109 33.8186 9.90636C33.7847 9.84464 33.663 9.68932 33.7283 9.71546C33.8483 9.76344 33.9964 10.0535 34.0745 10.1539C34.1844 10.2952 34.3004 10.4217 34.4186 10.5546C34.4604 10.6016 34.4619 10.5975 34.4605 10.5315C34.4526 10.1617 34.3371 9.8007 34.2088 9.45739C33.9145 8.67031 33.5598 9.25542 33.2962 8.45675C33.2616 8.3519 33.1712 6.73975 33.2773 6.77005C33.3371 6.78718 33.3802 6.87765 33.4053 6.92529C33.5812 7.25945 33.6386 7.65035 33.7431 8.00988C33.8553 8.3964 33.951 8.78271 34.0997 9.15743C34.1877 9.37928 34.2814 9.5955 34.3766 9.81404C34.4155 9.90344 34.4438 10.028 34.515 10.0994C34.6536 10.2379 34.4028 9.72336 34.3304 9.54134C34.1425 9.06872 33.9538 8.60932 33.8605 8.1064C33.7614 7.57245 33.7306 7.02164 33.6945 6.47675M33.6945 6.47675C33.6855 6.34117 33.6762 6.20597 33.6654 6.07147C33.6516 5.89829 33.5595 5.77027 33.4976 5.61207C33.4645 5.52743 33.4059 5.45833 33.3738 5.37499C33.3617 5.34348 33.1092 5.10044 32.9526 4.93267M33.6945 6.47675C33.421 5.8716 33.1187 5.22554 32.9526 4.93267M33.6945 6.47675C33.9875 7.12512 34.2476 7.72649 34.2717 7.79593C34.5525 8.60318 34.9086 9.37915 35.2367 10.1665C35.2913 10.2976 35.4128 10.6845 35.4339 10.5441C35.4513 10.4283 35.3401 10.1405 35.3164 10.0595C35.1974 9.65138 35.0502 9.2528 34.9178 8.84902C34.7537 8.34829 34.6465 7.8555 34.5339 7.34906C34.5285 7.32447 34.471 7.237 34.515 7.30082C34.7688 7.66881 34.9699 8.06447 35.1843 8.45675C35.4078 8.86589 35.6445 9.28469 35.9122 9.66718C36.1256 9.97207 35.724 8.94572 35.5934 8.5973C35.3606 7.97662 35.0641 7.34756 34.9199 6.69872C34.8653 6.4528 34.828 6.33692 35.0101 6.60645C35.303 7.03984 35.5529 7.49104 35.8073 7.94696C35.9975 8.28769 36.2316 8.58469 36.4535 8.90357C36.5121 8.98786 36.6313 9.24902 36.6423 9.14692C36.6745 8.84602 36.3465 8.40456 36.2038 8.15254C36.141 8.04147 36.0591 7.93027 36.0087 7.81271C35.9444 7.66263 35.9375 7.67434 36.0633 7.80009C36.3381 8.0749 36.5836 8.35868 36.8227 8.66443C36.9146 8.78198 37.2581 9.1855 37.3723 9.27898C37.5371 9.41379 37.1437 8.67636 37.1332 8.64344C36.9873 8.18851 36.7367 7.62799 36.764 7.13718C36.7658 7.10447 36.8003 7.19173 36.8185 7.21902C36.9404 7.40181 37.0763 7.57507 37.2066 7.75185C37.3407 7.93383 37.4463 8.14134 37.5947 8.31198C37.6447 8.36954 37.6475 8.39203 37.6199 8.27211C37.4538 7.5522 37.0972 6.89215 36.8353 6.20576C36.7416 5.96014 36.8207 6.01147 36.9381 6.16799C37.146 6.44529 37.2968 6.76181 37.4437 7.07426C37.6831 7.58344 37.9307 8.4531 38.3499 8.84902C38.4015 8.89769 38.2069 8.15533 38.1821 8.09173C38.0401 7.72812 37.9111 7.3564 37.7877 6.98615C37.6881 6.68739 37.594 6.38679 37.4999 6.08623L37.494 6.0673C37.4608 5.9613 37.1332 5.04323 37.1332 4.92185C37.1332 4.70851 37.6073 6.01546 37.7038 6.20576C38.0243 6.83782 38.3489 7.49872 38.7653 8.077C38.7753 8.09087 39.0331 8.64168 39.0558 8.6352C39.0842 8.62709 38.8275 8.06413 38.8241 8.05185C38.7971 7.95752 38.7297 7.79949 38.6982 7.7225C38.4337 7.07602 38.1944 6.42245 38.0562 5.73585C38.0042 5.47722 38.0774 5.16791 38.0017 4.92185C38 4.91645 37.9674 4.78705 37.9765 4.79391C38.0101 4.81906 38.0608 4.96048 38.073 4.98482C38.0816 5.00198 38.0902 5.01911 38.0988 5.03627M32.9526 4.93267C32.8723 4.84657 32.8171 4.78031 32.8326 4.77254C32.8485 4.76458 32.8913 4.82456 32.9526 4.93267ZM38.0988 5.03627C38.1853 5.20816 38.2727 5.37894 38.3499 5.55542C38.5254 5.95649 38.6874 6.367 38.8575 6.77121M38.0988 5.03627C38.0183 4.8134 37.9417 4.58706 37.8674 4.35544C37.8525 4.30891 37.7942 3.9088 37.8024 3.917C37.8219 3.93646 37.8557 3.98055 37.859 4.0072C37.8635 4.04281 37.9465 4.14993 37.9723 4.16664C38.1978 4.31254 38.3431 4.69797 38.5094 4.91348C39.1004 5.67966 39.1395 6.61881 39.295 7.5337M38.0988 5.03627C38.2978 5.58692 38.521 6.11615 38.7947 6.65048C38.8153 6.69091 38.8363 6.73112 38.8575 6.77121M38.8575 6.77121C38.9806 7.06353 39.1079 7.35254 39.2478 7.63228C39.2806 7.69795 39.4181 8.14361 39.3611 7.87984C39.3363 7.76512 39.3147 7.64962 39.295 7.5337M38.8575 6.77121C38.9947 7.0307 39.1421 7.28353 39.295 7.5337M39.295 7.5337C39.3486 7.62138 39.4029 7.70872 39.4576 7.79593C39.505 7.87134 39.8981 8.09035 39.8981 8.04765" stroke="#FFBE2F" stroke-width="0.8" stroke-linecap="round"/>
</svg>
